<svg width="144" height="144" viewBox="0 0 144 144" version="1.1" xmlns="http://www.w3.org/2000/svg" xmlns:xlink="http://www.w3.org/1999/xlink" xmlns:figma="http://www.figma.com/figma/ns"><title>Group</title><desc>Created using Figma</desc><g id="Canvas" transform="translate(140 142)" figma:type="canvas"><g id="Group" style="mix-blend-mode:normal;" figma:type="frame"><g id="Ellipse" style="mix-blend-mode:normal;" figma:type="ellipse"><use xlink:href="#path0_fill" transform="translate(-140 -142)" fill="#FFFFFF" style="mix-blend-mode:normal;"/></g><g id="Arrow" style="mix-blend-mode:normal;" figma:type="vector"><use xlink:href="#path1_stroke" transform="matrix(6.12323e-17 1 -1 6.12323e-17 -68 -94)" fill="#828282" style="mix-blend-mode:normal;"/></g></g></g><defs><path id="path0_fill" d="M 144 72C 144 111.765 111.765 144 72 144C 32.2355 144 0 111.765 0 72C 0 32.2355 32.2355 0 72 0C 111.765 0 144 32.2355 144 72Z"/><path id="path1_stroke" d="M 62.0607 1.06066C 62.6464 0.474874 62.6464 -0.474874 62.0607 -1.06066L 52.5147 -10.6066C 51.9289 -11.1924 50.9792 -11.1924 50.3934 -10.6066C 49.8076 -10.0208 49.8076 -9.07107 50.3934 -8.48528L 58.8787 0L 50.3934 8.48528C 49.8076 9.07107 49.8076 10.0208 50.3934 10.6066C 50.9792 11.1924 51.9289 11.1924 52.5147 10.6066L 62.0607 1.06066ZM 0 1.5L 61 1.5L 61 -1.5L 0 -1.5L 0 1.5Z"/></defs></svg>
