<svg width="65" height="65" viewBox="0 0 65 65" version="1.1" xmlns="http://www.w3.org/2000/svg" xmlns:xlink="http://www.w3.org/1999/xlink" xmlns:figma="http://www.figma.com/figma/ns"><title>Group</title><desc>Created using Figma</desc><g id="Canvas" transform="translate(138 165)" figma:type="canvas"><g id="Group" style="mix-blend-mode:normal;" figma:type="frame"><g id="Ellipse" style="mix-blend-mode:normal;" figma:type="ellipse"><mask id="mask0_outline_ins"><use xlink:href="#path0_fill" fill="white" transform="translate(-138 -165)"/></mask><g mask="url(#mask0_outline_ins)"><use xlink:href="#path1_stroke_2x" transform="translate(-138 -165)" fill="#FFFFFF" style="mix-blend-mode:normal;"/></g></g><g id="Line" style="mix-blend-mode:normal;" figma:type="line"><use xlink:href="#path2_stroke" transform="translate(-126.5 -144)" fill="#FFFFFF" style="mix-blend-mode:normal;"/></g><g id="Line" style="mix-blend-mode:normal;" figma:type="line"><use xlink:href="#path2_stroke" transform="translate(-126.5 -132.5)" fill="#FFFFFF" style="mix-blend-mode:normal;"/></g><g id="Line" style="mix-blend-mode:normal;" figma:type="line"><use xlink:href="#path2_stroke" transform="translate(-126.5 -120)" fill="#FFFFFF" style="mix-blend-mode:normal;"/></g></g></g><defs><path id="path0_fill" d="M 65 32.5C 65 50.4493 50.4493 65 32.5 65C 14.5507 65 0 50.4493 0 32.5C 0 14.5507 14.5507 0 32.5 0C 50.4493 0 65 14.5507 65 32.5Z"/><path id="path1_stroke_2x" d="M 63 32.5C 63 49.3447 49.3447 63 32.5 63L 32.5 67C 51.5538 67 67 51.5538 67 32.5L 63 32.5ZM 32.5 63C 15.6553 63 2 49.3447 2 32.5L -2 32.5C -2 51.5538 13.4462 67 32.5 67L 32.5 63ZM 2 32.5C 2 15.6553 15.6553 2 32.5 2L 32.5 -2C 13.4462 -2 -2 13.4462 -2 32.5L 2 32.5ZM 32.5 2C 49.3447 2 63 15.6553 63 32.5L 67 32.5C 67 13.4462 51.5538 -2 32.5 -2L 32.5 2Z"/><path id="path2_stroke" d="M 0 0L 42 0L 42 -2L 0 -2L 0 0Z"/></defs></svg>
